<svg xmlns="http://www.w3.org/2000/svg" viewBox="0 0 44.82 59.51"><defs><style>.cls-1{fill:#4da1ff;}</style></defs><title>Asset 1</title><g id="Layer_2" data-name="Layer 2"><g id="Layer_1-2" data-name="Layer 1"><path class="cls-1" d="M29.75,0H44.82V35.71q0,9.84-5.16,16a21.2,21.2,0,0,1-7.54,5.68,22.28,22.28,0,0,1-9.39,2.1A22.23,22.23,0,0,1,6.57,53.07,21.31,21.31,0,0,1,0,37.25,21.58,21.58,0,0,1,6.53,21.57,21,21,0,0,1,22,15c.95,0,2.38.09,4.3.26v17.7a6.42,6.42,0,0,0-4-1.54,5.78,5.78,0,0,0-4.27,1.82,6.08,6.08,0,0,0-1.78,4.41,5.72,5.72,0,0,0,1.84,4.27,6.15,6.15,0,0,0,4.43,1.79c4.12,0,7.19-2.85,7.19-8.55Z"/></g></g></svg>